{
    "accessors" : [
        {
            "bufferView" : 0,
            "componentType" : 5121,
            "count" : 96,
            "max" : [
                63
            ],
            "min" : [
                0
            ],
            "type" : "SCALAR"
        },
        {
            "bufferView" : 1,
            "componentType" : 5126,
            "count" : 64,
            "max" : [
                1.0,
                0.0385737419128418,
                1.0
            ],
            "min" : [
                -1.0,
                -0.03604679927229881,
                -1.0
            ],
            "type" : "VEC3"
        },
        {
            "bufferView" : 2,
            "componentType" : 5126,
            "count" : 64,
            "max" : [
                0.039138808846473694,
                0.9999985694885254,
                0.09107213467359543
            ],
            "min" : [
                -0.04063086584210396,
                0.9958279728889465,
                -0.06851349025964737
            ],
            "type" : "VEC3"
        },
        {
            "bufferView" : 3,
            "componentType" : 5126,
            "count" : 64,
            "max" : [
                0.9999997615814209,
                0.04064629226922989,
                6.60794394207187e-05,
                1.0
            ],
            "min" : [
                0.9991735816001892,
                -0.039142854511737823,
                -7.828333036741242e-05,
                1.0
            ],
            "type" : "VEC4"
        },
        {
            "bufferView" : 4,
            "componentType" : 5126,
            "count" : 64,
            "max" : [
                0.9464285969734192,
                0.9464285559952259
            ],
            "min" : [
                0.0535714216530323,
                0.05357140302658081
            ],
            "type" : "VEC2"
        }
    ],
    "asset" : {
        "generator" : "Khronos Blender glTF 2.0 exporter",
        "version" : "2.0"
    },
    "bufferViews" : [
        {
            "buffer" : 0,
            "byteLength" : 96,
            "byteOffset" : 0,
            "target" : 34963
        },
        {
            "buffer" : 0,
            "byteLength" : 768,
            "byteOffset" : 96,
            "target" : 34962
        },
        {
            "buffer" : 0,
            "byteLength" : 768,
            "byteOffset" : 864,
            "target" : 34962
        },
        {
            "buffer" : 0,
            "byteLength" : 1024,
            "byteOffset" : 1632,
            "target" : 34962
        },
        {
            "buffer" : 0,
            "byteLength" : 512,
            "byteOffset" : 2656,
            "target" : 34962
        }
    ],
    "buffers" : [
        {
            "byteLength" : 3168,
            "uri" : "STREET.bin"
        }
    ],
    "images" : [
        {
            "name" : "STREET",
            "uri" : "STREET.png"
        }
    ],
    "materials" : [
        {
            "name" : "Material.001",
            "pbrMetallicRoughness" : {
                "baseColorTexture" : {
                    "index" : 0
                },
                "metallicFactor" : 0.27272728085517883,
                "roughnessFactor" : 0.5545454621315002
            }
        }
    ],
    "meshes" : [
        {
            "name" : "Plane",
            "primitives" : [
                {
                    "attributes" : {
                        "NORMAL" : 2,
                        "POSITION" : 1,
                        "TANGENT" : 3,
                        "TEXCOORD_0" : 4
                    },
                    "indices" : 0,
                    "material" : 0
                }
            ]
        }
    ],
    "nodes" : [
        {
            "name" : "Camera",
            "rotation" : [
                0.483536034822464,
                0.33687159419059753,
                -0.20870360732078552,
                0.7804827094078064
            ],
            "translation" : [
                7.481131553649902,
                5.34366512298584,
                6.5076398849487305
            ]
        },
        {
            "name" : "Hemi",
            "translation" : [
                0.013512138277292252,
                2.7149899005889893,
                -0.005306527018547058
            ]
        },
        {
            "mesh" : 0,
            "name" : "Plane"
        }
    ],
    "samplers" : [
        {}
    ],
    "scene" : 0,
    "scenes" : [
        {
            "name" : "Scene",
            "nodes" : [
                1,
                2,
                0
            ]
        }
    ],
    "textures" : [
        {
            "sampler" : 0,
            "source" : 0
        }
    ]
}
