{
    "accessors" : [
        {
            "bufferView" : 0,
            "componentType" : 5121,
            "count" : 36,
            "max" : [
                23
            ],
            "min" : [
                0
            ],
            "type" : "SCALAR"
        },
        {
            "bufferView" : 1,
            "componentType" : 5126,
            "count" : 24,
            "max" : [
                1.0,
                1.0,
                1.0
            ],
            "min" : [
                -1.0,
                -1.0,
                -1.0
            ],
            "type" : "VEC3"
        },
        {
            "bufferView" : 2,
            "componentType" : 5126,
            "count" : 24,
            "max" : [
                1.0,
                1.0,
                1.0
            ],
            "min" : [
                -1.0,
                -1.0,
                -1.0
            ],
            "type" : "VEC3"
        },
        {
            "bufferView" : 3,
            "componentType" : 5121,
            "count" : 480,
            "max" : [
                207
            ],
            "min" : [
                0
            ],
            "type" : "SCALAR"
        },
        {
            "bufferView" : 4,
            "componentType" : 5126,
            "count" : 208,
            "max" : [
                1.0,
                1.0,
                1.0
            ],
            "min" : [
                -1.0,
                -1.0,
                -1.0
            ],
            "type" : "VEC3"
        },
        {
            "bufferView" : 5,
            "componentType" : 5126,
            "count" : 208,
            "max" : [
                0.9951847195625305,
                1.0,
                0.9951847195625305
            ],
            "min" : [
                -0.9951847791671753,
                -1.0,
                -0.0
            ],
            "type" : "VEC3"
        },
        {
            "bufferView" : 6,
            "componentType" : 5121,
            "count" : 300,
            "max" : [
                179
            ],
            "min" : [
                0
            ],
            "type" : "SCALAR"
        },
        {
            "bufferView" : 7,
            "componentType" : 5126,
            "count" : 180,
            "max" : [
                1.0,
                1.0,
                -7.549790126404332e-08
            ],
            "min" : [
                -1.0,
                -1.0,
                -1.294920563697815
            ],
            "type" : "VEC3"
        },
        {
            "bufferView" : 8,
            "componentType" : 5126,
            "count" : 180,
            "max" : [
                1.0,
                1.0,
                0.0
            ],
            "min" : [
                -1.0,
                -1.0,
                -0.9951847791671753
            ],
            "type" : "VEC3"
        },
        {
            "bufferView" : 9,
            "componentType" : 5121,
            "count" : 180,
            "max" : [
                63
            ],
            "min" : [
                0
            ],
            "type" : "SCALAR"
        },
        {
            "bufferView" : 10,
            "componentType" : 5126,
            "count" : 64,
            "max" : [
                0.8000000715255737,
                1.0,
                0.7999999523162842
            ],
            "min" : [
                -0.8000000715255737,
                -1.0,
                -0.8000001311302185
            ],
            "type" : "VEC3"
        },
        {
            "bufferView" : 11,
            "componentType" : 5126,
            "count" : 64,
            "max" : [
                1.4918128954377607e-07,
                1.0,
                -0.0
            ],
            "min" : [
                1.4918128954377607e-08,
                -0.9999999403953552,
                -0.0
            ],
            "type" : "VEC3"
        },
        {
            "bufferView" : 12,
            "componentType" : 5121,
            "count" : 36,
            "max" : [
                23
            ],
            "min" : [
                0
            ],
            "type" : "SCALAR"
        },
        {
            "bufferView" : 13,
            "componentType" : 5126,
            "count" : 24,
            "max" : [
                1.0,
                1.0,
                1.0
            ],
            "min" : [
                -1.0,
                -1.0,
                -1.0
            ],
            "type" : "VEC3"
        },
        {
            "bufferView" : 14,
            "componentType" : 5126,
            "count" : 24,
            "max" : [
                1.0,
                1.0,
                1.0
            ],
            "min" : [
                -1.0,
                -1.0,
                -1.0
            ],
            "type" : "VEC3"
        },
        {
            "bufferView" : 15,
            "componentType" : 5121,
            "count" : 48,
            "max" : [
                31
            ],
            "min" : [
                0
            ],
            "type" : "SCALAR"
        },
        {
            "bufferView" : 16,
            "componentType" : 5126,
            "count" : 32,
            "max" : [
                0.5905212759971619,
                7.248261451721191,
                0.988146185874939
            ],
            "min" : [
                -0.5905212759971619,
                3.348782539367676,
                -0.9881457090377808
            ],
            "type" : "VEC3"
        },
        {
            "bufferView" : 17,
            "componentType" : 5126,
            "count" : 32,
            "max" : [
                0.9972971081733704,
                0.0734747126698494,
                0.998570442199707
            ],
            "min" : [
                -0.9999504089355469,
                0.009950531646609306,
                -0.998570442199707
            ],
            "type" : "VEC3"
        },
        {
            "bufferView" : 18,
            "componentType" : 5123,
            "count" : 855,
            "max" : [
                540
            ],
            "min" : [
                0
            ],
            "type" : "SCALAR"
        },
        {
            "bufferView" : 19,
            "componentType" : 5126,
            "count" : 541,
            "max" : [
                1.02180814743042,
                7.35055685043335,
                1.0474169254302979
            ],
            "min" : [
                -1.0218082666397095,
                -1.0000001192092896,
                -1.047417163848877
            ],
            "type" : "VEC3"
        },
        {
            "bufferView" : 20,
            "componentType" : 5126,
            "count" : 541,
            "max" : [
                1.0,
                1.0,
                1.0
            ],
            "min" : [
                -1.0,
                -1.0,
                -1.0
            ],
            "type" : "VEC3"
        }
    ],
    "asset" : {
        "generator" : "Khronos Blender glTF 2.0 exporter",
        "version" : "2.0"
    },
    "bufferViews" : [
        {
            "buffer" : 0,
            "byteLength" : 36,
            "byteOffset" : 0,
            "target" : 34963
        },
        {
            "buffer" : 0,
            "byteLength" : 288,
            "byteOffset" : 36,
            "target" : 34962
        },
        {
            "buffer" : 0,
            "byteLength" : 288,
            "byteOffset" : 324,
            "target" : 34962
        },
        {
            "buffer" : 0,
            "byteLength" : 480,
            "byteOffset" : 612,
            "target" : 34963
        },
        {
            "buffer" : 0,
            "byteLength" : 2496,
            "byteOffset" : 1092,
            "target" : 34962
        },
        {
            "buffer" : 0,
            "byteLength" : 2496,
            "byteOffset" : 3588,
            "target" : 34962
        },
        {
            "buffer" : 0,
            "byteLength" : 300,
            "byteOffset" : 6084,
            "target" : 34963
        },
        {
            "buffer" : 0,
            "byteLength" : 2160,
            "byteOffset" : 6384,
            "target" : 34962
        },
        {
            "buffer" : 0,
            "byteLength" : 2160,
            "byteOffset" : 8544,
            "target" : 34962
        },
        {
            "buffer" : 0,
            "byteLength" : 180,
            "byteOffset" : 10704,
            "target" : 34963
        },
        {
            "buffer" : 0,
            "byteLength" : 768,
            "byteOffset" : 10884,
            "target" : 34962
        },
        {
            "buffer" : 0,
            "byteLength" : 768,
            "byteOffset" : 11652,
            "target" : 34962
        },
        {
            "buffer" : 0,
            "byteLength" : 36,
            "byteOffset" : 12420,
            "target" : 34963
        },
        {
            "buffer" : 0,
            "byteLength" : 288,
            "byteOffset" : 12456,
            "target" : 34962
        },
        {
            "buffer" : 0,
            "byteLength" : 288,
            "byteOffset" : 12744,
            "target" : 34962
        },
        {
            "buffer" : 0,
            "byteLength" : 48,
            "byteOffset" : 13032,
            "target" : 34963
        },
        {
            "buffer" : 0,
            "byteLength" : 384,
            "byteOffset" : 13080,
            "target" : 34962
        },
        {
            "buffer" : 0,
            "byteLength" : 384,
            "byteOffset" : 13464,
            "target" : 34962
        },
        {
            "buffer" : 0,
            "byteLength" : 1710,
            "byteOffset" : 13848,
            "target" : 34963
        },
        {
            "buffer" : 0,
            "byteLength" : 6492,
            "byteOffset" : 15560,
            "target" : 34962
        },
        {
            "buffer" : 0,
            "byteLength" : 6492,
            "byteOffset" : 22052,
            "target" : 34962
        }
    ],
    "buffers" : [
        {
            "byteLength" : 28544,
            "uri" : "lowPolyCar2.bin"
        }
    ],
    "materials" : [
        {
            "emissiveFactor" : [
                0.2056991010904312,
                0.2056991010904312,
                0.2056991010904312
            ],
            "name" : "Material",
            "pbrMetallicRoughness" : {}
        },
        {
            "name" : "Material.001",
            "pbrMetallicRoughness" : {
                "baseColorFactor" : [
                    1.0,
                    0.0,
                    0.015579183585941792,
                    1.0
                ],
                "metallicFactor" : 0.4776119589805603,
                "roughnessFactor" : 0.13432833552360535
            }
        },
        {
            "emissiveFactor" : [
                0.7551501393318176,
                0.7551501393318176,
                0.7551501393318176
            ],
            "name" : "Material.002",
            "pbrMetallicRoughness" : {}
        },
        {
            "name" : "Material.003",
            "pbrMetallicRoughness" : {
                "baseColorFactor" : [
                    0.013508681207895279,
                    0.013508681207895279,
                    0.013508681207895279,
                    1.0
                ],
                "metallicFactor" : 0.800000011920929,
                "roughnessFactor" : 0.48181819915771484
            }
        },
        {
            "name" : "Material.004",
            "pbrMetallicRoughness" : {
                "baseColorFactor" : [
                    0.6277350187301636,
                    0.5709777474403381,
                    0.5468037724494934,
                    1.0
                ],
                "metallicFactor" : 0.4272727072238922,
                "roughnessFactor" : 0.09090906381607056
            }
        },
        {
            "emissiveFactor" : [
                0.5768681764602661,
                0.5768681764602661,
                0.5768681764602661
            ],
            "name" : "Material.005",
            "pbrMetallicRoughness" : {
                "baseColorFactor" : [
                    1.0,
                    0.9455761909484863,
                    0.0,
                    1.0
                ],
                "metallicFactor" : 0.3909091055393219
            }
        }
    ],
    "meshes" : [
        {
            "name" : "Cube.001",
            "primitives" : [
                {
                    "attributes" : {
                        "NORMAL" : 2,
                        "POSITION" : 1
                    },
                    "indices" : 0,
                    "material" : 4
                }
            ]
        },
        {
            "name" : "Cylinder",
            "primitives" : [
                {
                    "attributes" : {
                        "NORMAL" : 5,
                        "POSITION" : 4
                    },
                    "indices" : 3,
                    "material" : 3
                },
                {
                    "attributes" : {
                        "NORMAL" : 8,
                        "POSITION" : 7
                    },
                    "indices" : 6,
                    "material" : 1
                },
                {
                    "attributes" : {
                        "NORMAL" : 11,
                        "POSITION" : 10
                    },
                    "indices" : 9,
                    "material" : 4
                }
            ]
        },
        {
            "name" : "Cube.002",
            "primitives" : [
                {
                    "attributes" : {
                        "NORMAL" : 14,
                        "POSITION" : 13
                    },
                    "indices" : 12,
                    "material" : 5
                }
            ]
        },
        {
            "name" : "Cube",
            "primitives" : [
                {
                    "attributes" : {
                        "NORMAL" : 17,
                        "POSITION" : 16
                    },
                    "indices" : 15,
                    "material" : 2
                },
                {
                    "attributes" : {
                        "NORMAL" : 20,
                        "POSITION" : 19
                    },
                    "indices" : 18,
                    "material" : 1
                }
            ]
        }
    ],
    "nodes" : [
        {
            "name" : "Camera",
            "rotation" : [
                0.483536034822464,
                0.33687159419059753,
                -0.20870360732078552,
                0.7804827094078064
            ],
            "scale" : [
                0.5,
                0.5,
                0.5
            ],
            "translation" : [
                3.691774845123291,
                2.6699392795562744,
                3.242668390274048
            ]
        },
        {
            "mesh" : 3,
            "name" : "Cube",
            "rotation" : [
                -0.0,
                -0.0,
                -1.0,
                0.0
            ],
            "scale" : [
                -1.8341869115829468,
                -0.24439013004302979,
                -0.8435831665992737
            ],
            "translation" : [
                -0.04879111051559448,
                0.4979853630065918,
                -0.011151686310768127
            ]
        },
        {
            "mesh" : 0,
            "name" : "Cube.001",
            "rotation" : [
                1.0,
                -0.0,
                0.0,
                0.0
            ],
            "scale" : [
                -0.02502392791211605,
                -0.14774924516677856,
                -0.5731298327445984
            ],
            "translation" : [
                1.8007001876831055,
                0.7423858642578125,
                -0.013001009821891785
            ]
        },
        {
            "mesh" : 2,
            "name" : "Cube.002",
            "rotation" : [
                1.0,
                -0.0,
                0.0,
                0.0
            ],
            "scale" : [
                -0.02502392791211605,
                -0.14774924516677856,
                -0.10908088088035583
            ],
            "translation" : [
                1.8007001876831055,
                0.7423858642578125,
                0.6955810785293579
            ]
        },
        {
            "mesh" : 2,
            "name" : "Cube.003",
            "rotation" : [
                1.0,
                -0.0,
                0.0,
                0.0
            ],
            "scale" : [
                -0.02502392791211605,
                -0.14774924516677856,
                -0.10908088088035583
            ],
            "translation" : [
                1.8007001876831055,
                0.7423858642578125,
                -0.7293633222579956
            ]
        },
        {
            "mesh" : 2,
            "name" : "Cube.004",
            "rotation" : [
                1.0,
                -0.0,
                0.0,
                0.0
            ],
            "scale" : [
                -0.02502392791211605,
                -0.14774924516677856,
                -0.10908088088035583
            ],
            "translation" : [
                1.8007001876831055,
                0.7423858642578125,
                -0.7293633222579956
            ]
        },
        {
            "mesh" : 2,
            "name" : "Cube.005",
            "rotation" : [
                1.0,
                -0.0,
                0.0,
                0.0
            ],
            "scale" : [
                -0.02502392791211605,
                -0.14774924516677856,
                -0.10908088088035583
            ],
            "translation" : [
                1.8007001876831055,
                0.7423858642578125,
                0.6955810785293579
            ]
        },
        {
            "mesh" : 2,
            "name" : "Cube.006",
            "rotation" : [
                1.0,
                -0.0,
                0.0,
                0.0
            ],
            "scale" : [
                -0.02502392791211605,
                -0.14774924516677856,
                -0.10908088088035583
            ],
            "translation" : [
                -1.8787086009979248,
                0.7423858642578125,
                0.6955810785293579
            ]
        },
        {
            "mesh" : 2,
            "name" : "Cube.007",
            "rotation" : [
                1.0,
                -0.0,
                0.0,
                0.0
            ],
            "scale" : [
                -0.02502392791211605,
                -0.14774924516677856,
                -0.10908088088035583
            ],
            "translation" : [
                -1.8787086009979248,
                0.7423858642578125,
                -0.7293633222579956
            ]
        },
        {
            "mesh" : 1,
            "name" : "Cylinder",
            "rotation" : [
                0.7071068286895752,
                0.0,
                -0.0,
                0.7071068286895752
            ],
            "scale" : [
                0.33907437324523926,
                0.12238169461488724,
                0.33907437324523926
            ],
            "translation" : [
                0.7661483287811279,
                0.37967514991760254,
                0.7861164808273315
            ]
        },
        {
            "mesh" : 1,
            "name" : "Cylinder.001",
            "rotation" : [
                0.7071068286895752,
                0.0,
                -0.0,
                0.7071068286895752
            ],
            "scale" : [
                0.33907437324523926,
                0.12238169461488724,
                0.33907437324523926
            ],
            "translation" : [
                -0.8623708486557007,
                0.37967514991760254,
                0.7861164808273315
            ]
        },
        {
            "mesh" : 1,
            "name" : "Cylinder.002",
            "rotation" : [
                0.7071068286895752,
                0.0,
                -0.0,
                0.7071068286895752
            ],
            "scale" : [
                0.33907437324523926,
                0.12238169461488724,
                0.33907437324523926
            ],
            "translation" : [
                0.7661483287811279,
                0.37967514991760254,
                -0.8063192367553711
            ]
        },
        {
            "mesh" : 1,
            "name" : "Cylinder.003",
            "rotation" : [
                0.7071068286895752,
                0.0,
                -0.0,
                0.7071068286895752
            ],
            "scale" : [
                0.33907437324523926,
                0.12238169461488724,
                0.33907437324523926
            ],
            "translation" : [
                -0.8686672449111938,
                0.37967514991760254,
                -0.8179929256439209
            ]
        }
    ],
    "scene" : 0,
    "scenes" : [
        {
            "name" : "Scene",
            "nodes" : [
                8,
                7,
                6,
                5,
                12,
                11,
                10,
                9,
                4,
                3,
                2,
                1,
                0
            ]
        }
    ]
}
