{
    "accessors" : [
        {
            "bufferView" : 0,
            "componentType" : 5123,
            "count" : 10995,
            "max" : [
                4087
            ],
            "min" : [
                0
            ],
            "type" : "SCALAR"
        },
        {
            "bufferView" : 1,
            "componentType" : 5126,
            "count" : 4088,
            "max" : [
                7.949999809265137,
                2.09922194480896,
                7.949999809265137
            ],
            "min" : [
                -7.949999809265137,
                0.2117016613483429,
                -7.949999809265137
            ],
            "type" : "VEC3"
        },
        {
            "bufferView" : 2,
            "componentType" : 5126,
            "count" : 4088,
            "max" : [
                1.0,
                1.0,
                1.0
            ],
            "min" : [
                -1.0,
                0.0,
                -1.0
            ],
            "type" : "VEC3"
        },
        {
            "bufferView" : 3,
            "componentType" : 5123,
            "count" : 1221,
            "max" : [
                456
            ],
            "min" : [
                0
            ],
            "type" : "SCALAR"
        },
        {
            "bufferView" : 4,
            "componentType" : 5126,
            "count" : 457,
            "max" : [
                6.924192428588867,
                0.25913187861442566,
                7.43709659576416
            ],
            "min" : [
                -1.795161485671997,
                0.2117016613483429,
                -6.924192428588867
            ],
            "type" : "VEC3"
        },
        {
            "bufferView" : 5,
            "componentType" : 5126,
            "count" : 457,
            "max" : [
                1.0,
                1.0,
                1.0
            ],
            "min" : [
                -1.0,
                0.0,
                -1.0
            ],
            "type" : "VEC3"
        }
    ],
    "asset" : {
        "generator" : "Khronos Blender glTF 2.0 exporter",
        "version" : "2.0"
    },
    "bufferViews" : [
        {
            "buffer" : 0,
            "byteLength" : 21990,
            "byteOffset" : 0,
            "target" : 34963
        },
        {
            "buffer" : 0,
            "byteLength" : 49056,
            "byteOffset" : 21992,
            "target" : 34962
        },
        {
            "buffer" : 0,
            "byteLength" : 49056,
            "byteOffset" : 71048,
            "target" : 34962
        },
        {
            "buffer" : 0,
            "byteLength" : 2442,
            "byteOffset" : 120104,
            "target" : 34963
        },
        {
            "buffer" : 0,
            "byteLength" : 5484,
            "byteOffset" : 122548,
            "target" : 34962
        },
        {
            "buffer" : 0,
            "byteLength" : 5484,
            "byteOffset" : 128032,
            "target" : 34962
        }
    ],
    "buffers" : [
        {
            "byteLength" : 133516,
            "uri" : "map1.bin"
        }
    ],
    "materials" : [
        {
            "emissiveFactor" : [
                0.6382268667221069,
                0.6382268667221069,
                0.6382268667221069
            ],
            "name" : "Material.001",
            "pbrMetallicRoughness" : {
                "baseColorFactor" : [
                    0.16788208484649658,
                    0.16788208484649658,
                    0.16788208484649658,
                    1.0
                ],
                "metallicFactor" : 0.0
            }
        },
        {
            "name" : "Material.002",
            "pbrMetallicRoughness" : {}
        }
    ],
    "meshes" : [
        {
            "name" : "Grid",
            "primitives" : [
                {
                    "attributes" : {
                        "NORMAL" : 2,
                        "POSITION" : 1
                    },
                    "indices" : 0,
                    "material" : 0
                },
                {
                    "attributes" : {
                        "NORMAL" : 5,
                        "POSITION" : 4
                    },
                    "indices" : 3,
                    "material" : 1
                }
            ]
        }
    ],
    "nodes" : [
        {
            "name" : "Camera",
            "rotation" : [
                0.483536034822464,
                0.33687159419059753,
                -0.20870360732078552,
                0.7804827094078064
            ],
            "translation" : [
                7.481131553649902,
                5.34366512298584,
                6.5076398849487305
            ]
        },
        {
            "mesh" : 0,
            "name" : "Grid"
        }
    ],
    "scene" : 0,
    "scenes" : [
        {
            "name" : "Scene",
            "nodes" : [
                1,
                0
            ]
        }
    ]
}
